<svg t="1725520856044" class="icon" viewBox="0 0 1024 1024" version="1.1" xmlns="http://www.w3.org/2000/svg" p-id="1027" width="200" height="200"><path d="M85.333333 0v938.666667h938.666667v85.333333H0V0h85.333333z m844.544 168.32a42.666667 42.666667 0 0 1 8.533334 25.514667v574.250666a85.333333 85.333333 0 0 1-85.333334 85.333334H254.976a85.333333 85.333333 0 0 1-85.333333-85.333334V342.442667L401.664 187.733333a42.666667 42.666667 0 0 1 51.84 3.413334l172.032 151.253333 244.650667-182.784a42.666667 42.666667 0 0 1 59.733333 8.661333zM421.76 276.906667L255.061333 388.053333l-0.042666 191.189334 195.456-165.034667 157.013333 133.248 245.546667-148.736 0.042666-119.765333-231.893333 173.226666L421.76 276.906667z" p-id="1028"></path></svg>